<mxfile host="app.diagrams.net" agent="Mozilla/5.0 (Macintosh; Intel Mac OS X 10_15_7) AppleWebKit/537.36 (KHTML, like Gecko) Chrome/138.0.0.0 Safari/537.36" version="27.2.0">
  <diagram name="第 1 页" id="PDHIMLLCr4lSCbn0xV3_">
    <mxGraphModel dx="1426" dy="790" grid="1" gridSize="10" guides="1" tooltips="1" connect="1" arrows="1" fold="1" page="1" pageScale="1" pageWidth="827" pageHeight="1169" math="0" shadow="0">
      <root>
        <mxCell id="0" />
        <mxCell id="1" parent="0" />
        <mxCell id="JG_HZuFrUu9Nx8kR7QPN-1" value="" style="rounded=0;whiteSpace=wrap;html=1;fillColor=none;" vertex="1" parent="1">
          <mxGeometry x="180" y="220" width="110" height="300" as="geometry" />
        </mxCell>
        <mxCell id="JG_HZuFrUu9Nx8kR7QPN-2" value="Group0" style="text;html=1;align=center;verticalAlign=middle;resizable=0;points=[];autosize=1;strokeColor=none;fillColor=none;" vertex="1" parent="1">
          <mxGeometry x="205" y="190" width="60" height="30" as="geometry" />
        </mxCell>
        <mxCell id="JG_HZuFrUu9Nx8kR7QPN-3" value="&lt;font style=&quot;font-size: 18px;&quot;&gt;TP 8 PP 4&lt;/font&gt;" style="text;html=1;align=center;verticalAlign=middle;resizable=0;points=[];autosize=1;strokeColor=none;fillColor=none;" vertex="1" parent="1">
          <mxGeometry x="369" y="90" width="100" height="40" as="geometry" />
        </mxCell>
        <mxCell id="JG_HZuFrUu9Nx8kR7QPN-10" value="24 Layers" style="text;html=1;align=center;verticalAlign=middle;resizable=0;points=[];autosize=1;strokeColor=none;fillColor=none;" vertex="1" parent="1">
          <mxGeometry x="379" y="150" width="80" height="30" as="geometry" />
        </mxCell>
        <mxCell id="JG_HZuFrUu9Nx8kR7QPN-11" value="TP0, G0" style="rounded=0;whiteSpace=wrap;html=1;" vertex="1" parent="1">
          <mxGeometry x="190" y="230" width="90" height="30" as="geometry" />
        </mxCell>
        <mxCell id="JG_HZuFrUu9Nx8kR7QPN-12" value="TP1, G1" style="rounded=0;whiteSpace=wrap;html=1;" vertex="1" parent="1">
          <mxGeometry x="190" y="260" width="90" height="30" as="geometry" />
        </mxCell>
        <mxCell id="JG_HZuFrUu9Nx8kR7QPN-13" value="TP2, G2" style="rounded=0;whiteSpace=wrap;html=1;" vertex="1" parent="1">
          <mxGeometry x="190" y="290" width="90" height="30" as="geometry" />
        </mxCell>
        <mxCell id="JG_HZuFrUu9Nx8kR7QPN-14" value="TP3, G3" style="rounded=0;whiteSpace=wrap;html=1;" vertex="1" parent="1">
          <mxGeometry x="190" y="320" width="90" height="30" as="geometry" />
        </mxCell>
        <mxCell id="JG_HZuFrUu9Nx8kR7QPN-15" value="TP4, G4" style="rounded=0;whiteSpace=wrap;html=1;" vertex="1" parent="1">
          <mxGeometry x="190" y="350" width="90" height="30" as="geometry" />
        </mxCell>
        <mxCell id="JG_HZuFrUu9Nx8kR7QPN-16" value="TP5, G5" style="rounded=0;whiteSpace=wrap;html=1;" vertex="1" parent="1">
          <mxGeometry x="190" y="380" width="90" height="30" as="geometry" />
        </mxCell>
        <mxCell id="JG_HZuFrUu9Nx8kR7QPN-17" value="TP6, G6" style="rounded=0;whiteSpace=wrap;html=1;" vertex="1" parent="1">
          <mxGeometry x="190" y="410" width="90" height="30" as="geometry" />
        </mxCell>
        <mxCell id="JG_HZuFrUu9Nx8kR7QPN-18" value="TP7, G7" style="rounded=0;whiteSpace=wrap;html=1;" vertex="1" parent="1">
          <mxGeometry x="190" y="440" width="90" height="30" as="geometry" />
        </mxCell>
        <mxCell id="JG_HZuFrUu9Nx8kR7QPN-19" value="layer1-6" style="text;html=1;align=center;verticalAlign=middle;whiteSpace=wrap;rounded=0;" vertex="1" parent="1">
          <mxGeometry x="205" y="480" width="60" height="30" as="geometry" />
        </mxCell>
        <mxCell id="JG_HZuFrUu9Nx8kR7QPN-20" value="" style="rounded=0;whiteSpace=wrap;html=1;fillColor=none;" vertex="1" parent="1">
          <mxGeometry x="359" y="220" width="110" height="300" as="geometry" />
        </mxCell>
        <mxCell id="JG_HZuFrUu9Nx8kR7QPN-21" value="Group1" style="text;html=1;align=center;verticalAlign=middle;resizable=0;points=[];autosize=1;strokeColor=none;fillColor=none;" vertex="1" parent="1">
          <mxGeometry x="384" y="190" width="60" height="30" as="geometry" />
        </mxCell>
        <mxCell id="JG_HZuFrUu9Nx8kR7QPN-22" value="TP0, G0" style="rounded=0;whiteSpace=wrap;html=1;" vertex="1" parent="1">
          <mxGeometry x="369" y="230" width="90" height="30" as="geometry" />
        </mxCell>
        <mxCell id="JG_HZuFrUu9Nx8kR7QPN-23" value="TP1, G1" style="rounded=0;whiteSpace=wrap;html=1;" vertex="1" parent="1">
          <mxGeometry x="369" y="260" width="90" height="30" as="geometry" />
        </mxCell>
        <mxCell id="JG_HZuFrUu9Nx8kR7QPN-24" value="TP2, G2" style="rounded=0;whiteSpace=wrap;html=1;" vertex="1" parent="1">
          <mxGeometry x="369" y="290" width="90" height="30" as="geometry" />
        </mxCell>
        <mxCell id="JG_HZuFrUu9Nx8kR7QPN-25" value="TP3, G3" style="rounded=0;whiteSpace=wrap;html=1;" vertex="1" parent="1">
          <mxGeometry x="369" y="320" width="90" height="30" as="geometry" />
        </mxCell>
        <mxCell id="JG_HZuFrUu9Nx8kR7QPN-26" value="TP4, G4" style="rounded=0;whiteSpace=wrap;html=1;" vertex="1" parent="1">
          <mxGeometry x="369" y="350" width="90" height="30" as="geometry" />
        </mxCell>
        <mxCell id="JG_HZuFrUu9Nx8kR7QPN-27" value="TP5, G5" style="rounded=0;whiteSpace=wrap;html=1;" vertex="1" parent="1">
          <mxGeometry x="369" y="380" width="90" height="30" as="geometry" />
        </mxCell>
        <mxCell id="JG_HZuFrUu9Nx8kR7QPN-28" value="TP6, G6" style="rounded=0;whiteSpace=wrap;html=1;" vertex="1" parent="1">
          <mxGeometry x="369" y="410" width="90" height="30" as="geometry" />
        </mxCell>
        <mxCell id="JG_HZuFrUu9Nx8kR7QPN-29" value="TP7, G7" style="rounded=0;whiteSpace=wrap;html=1;" vertex="1" parent="1">
          <mxGeometry x="369" y="440" width="90" height="30" as="geometry" />
        </mxCell>
        <mxCell id="JG_HZuFrUu9Nx8kR7QPN-30" value="layer7-12" style="text;html=1;align=center;verticalAlign=middle;whiteSpace=wrap;rounded=0;" vertex="1" parent="1">
          <mxGeometry x="384" y="480" width="60" height="30" as="geometry" />
        </mxCell>
        <mxCell id="JG_HZuFrUu9Nx8kR7QPN-31" value="" style="rounded=0;whiteSpace=wrap;html=1;fillColor=none;" vertex="1" parent="1">
          <mxGeometry x="530" y="220" width="110" height="300" as="geometry" />
        </mxCell>
        <mxCell id="JG_HZuFrUu9Nx8kR7QPN-32" value="Group2" style="text;html=1;align=center;verticalAlign=middle;resizable=0;points=[];autosize=1;strokeColor=none;fillColor=none;" vertex="1" parent="1">
          <mxGeometry x="555" y="190" width="60" height="30" as="geometry" />
        </mxCell>
        <mxCell id="JG_HZuFrUu9Nx8kR7QPN-33" value="TP0, G0" style="rounded=0;whiteSpace=wrap;html=1;" vertex="1" parent="1">
          <mxGeometry x="540" y="230" width="90" height="30" as="geometry" />
        </mxCell>
        <mxCell id="JG_HZuFrUu9Nx8kR7QPN-34" value="TP1, G1" style="rounded=0;whiteSpace=wrap;html=1;" vertex="1" parent="1">
          <mxGeometry x="540" y="260" width="90" height="30" as="geometry" />
        </mxCell>
        <mxCell id="JG_HZuFrUu9Nx8kR7QPN-35" value="TP2, G2" style="rounded=0;whiteSpace=wrap;html=1;" vertex="1" parent="1">
          <mxGeometry x="540" y="290" width="90" height="30" as="geometry" />
        </mxCell>
        <mxCell id="JG_HZuFrUu9Nx8kR7QPN-36" value="TP3, G3" style="rounded=0;whiteSpace=wrap;html=1;" vertex="1" parent="1">
          <mxGeometry x="540" y="320" width="90" height="30" as="geometry" />
        </mxCell>
        <mxCell id="JG_HZuFrUu9Nx8kR7QPN-37" value="TP4, G4" style="rounded=0;whiteSpace=wrap;html=1;" vertex="1" parent="1">
          <mxGeometry x="540" y="350" width="90" height="30" as="geometry" />
        </mxCell>
        <mxCell id="JG_HZuFrUu9Nx8kR7QPN-38" value="TP5, G5" style="rounded=0;whiteSpace=wrap;html=1;" vertex="1" parent="1">
          <mxGeometry x="540" y="380" width="90" height="30" as="geometry" />
        </mxCell>
        <mxCell id="JG_HZuFrUu9Nx8kR7QPN-39" value="TP6, G6" style="rounded=0;whiteSpace=wrap;html=1;" vertex="1" parent="1">
          <mxGeometry x="540" y="410" width="90" height="30" as="geometry" />
        </mxCell>
        <mxCell id="JG_HZuFrUu9Nx8kR7QPN-40" value="TP7, G7" style="rounded=0;whiteSpace=wrap;html=1;" vertex="1" parent="1">
          <mxGeometry x="540" y="440" width="90" height="30" as="geometry" />
        </mxCell>
        <mxCell id="JG_HZuFrUu9Nx8kR7QPN-41" value="layer13-18" style="text;html=1;align=center;verticalAlign=middle;whiteSpace=wrap;rounded=0;" vertex="1" parent="1">
          <mxGeometry x="555" y="480" width="60" height="30" as="geometry" />
        </mxCell>
        <mxCell id="JG_HZuFrUu9Nx8kR7QPN-42" value="" style="rounded=0;whiteSpace=wrap;html=1;fillColor=none;" vertex="1" parent="1">
          <mxGeometry x="700" y="220" width="110" height="300" as="geometry" />
        </mxCell>
        <mxCell id="JG_HZuFrUu9Nx8kR7QPN-43" value="Group3" style="text;html=1;align=center;verticalAlign=middle;resizable=0;points=[];autosize=1;strokeColor=none;fillColor=none;" vertex="1" parent="1">
          <mxGeometry x="725" y="190" width="60" height="30" as="geometry" />
        </mxCell>
        <mxCell id="JG_HZuFrUu9Nx8kR7QPN-44" value="TP0, G0" style="rounded=0;whiteSpace=wrap;html=1;" vertex="1" parent="1">
          <mxGeometry x="710" y="230" width="90" height="30" as="geometry" />
        </mxCell>
        <mxCell id="JG_HZuFrUu9Nx8kR7QPN-45" value="TP1, G1" style="rounded=0;whiteSpace=wrap;html=1;" vertex="1" parent="1">
          <mxGeometry x="710" y="260" width="90" height="30" as="geometry" />
        </mxCell>
        <mxCell id="JG_HZuFrUu9Nx8kR7QPN-46" value="TP2, G2" style="rounded=0;whiteSpace=wrap;html=1;" vertex="1" parent="1">
          <mxGeometry x="710" y="290" width="90" height="30" as="geometry" />
        </mxCell>
        <mxCell id="JG_HZuFrUu9Nx8kR7QPN-47" value="TP3, G3" style="rounded=0;whiteSpace=wrap;html=1;" vertex="1" parent="1">
          <mxGeometry x="710" y="320" width="90" height="30" as="geometry" />
        </mxCell>
        <mxCell id="JG_HZuFrUu9Nx8kR7QPN-48" value="TP4, G4" style="rounded=0;whiteSpace=wrap;html=1;" vertex="1" parent="1">
          <mxGeometry x="710" y="350" width="90" height="30" as="geometry" />
        </mxCell>
        <mxCell id="JG_HZuFrUu9Nx8kR7QPN-49" value="TP5, G5" style="rounded=0;whiteSpace=wrap;html=1;" vertex="1" parent="1">
          <mxGeometry x="710" y="380" width="90" height="30" as="geometry" />
        </mxCell>
        <mxCell id="JG_HZuFrUu9Nx8kR7QPN-50" value="TP6, G6" style="rounded=0;whiteSpace=wrap;html=1;" vertex="1" parent="1">
          <mxGeometry x="710" y="410" width="90" height="30" as="geometry" />
        </mxCell>
        <mxCell id="JG_HZuFrUu9Nx8kR7QPN-51" value="TP7, G7" style="rounded=0;whiteSpace=wrap;html=1;" vertex="1" parent="1">
          <mxGeometry x="710" y="440" width="90" height="30" as="geometry" />
        </mxCell>
        <mxCell id="JG_HZuFrUu9Nx8kR7QPN-52" value="layer19-24" style="text;html=1;align=center;verticalAlign=middle;whiteSpace=wrap;rounded=0;" vertex="1" parent="1">
          <mxGeometry x="725" y="480" width="60" height="30" as="geometry" />
        </mxCell>
        <mxCell id="JG_HZuFrUu9Nx8kR7QPN-53" value="" style="shape=flexArrow;endArrow=classic;html=1;rounded=0;" edge="1" parent="1">
          <mxGeometry width="50" height="50" relative="1" as="geometry">
            <mxPoint x="310" y="380" as="sourcePoint" />
            <mxPoint x="350" y="380" as="targetPoint" />
          </mxGeometry>
        </mxCell>
        <mxCell id="JG_HZuFrUu9Nx8kR7QPN-54" value="" style="shape=flexArrow;endArrow=classic;html=1;rounded=0;" edge="1" parent="1">
          <mxGeometry width="50" height="50" relative="1" as="geometry">
            <mxPoint x="480" y="379" as="sourcePoint" />
            <mxPoint x="520" y="379" as="targetPoint" />
          </mxGeometry>
        </mxCell>
        <mxCell id="JG_HZuFrUu9Nx8kR7QPN-55" value="" style="shape=flexArrow;endArrow=classic;html=1;rounded=0;" edge="1" parent="1">
          <mxGeometry width="50" height="50" relative="1" as="geometry">
            <mxPoint x="650" y="380" as="sourcePoint" />
            <mxPoint x="690" y="380" as="targetPoint" />
          </mxGeometry>
        </mxCell>
      </root>
    </mxGraphModel>
  </diagram>
</mxfile>
